<svg xmlns="http://www.w3.org/2000/svg" viewBox="0 0 956.58 375.15"><defs><style>.cls-1{fill:#fff;}</style></defs><g id="Layer_2" data-name="Layer 2"><g id="Layer_1-2" data-name="Layer 1"><path class="cls-1" d="M458.39,186.35q3.24-2.16,3.24-8a8.28,8.28,0,0,0-1.86-5.4,6.09,6.09,0,0,0-5-2.28,9.47,9.47,0,0,0-2.11.3,11,11,0,0,1-2.58.3q-3.94,0-3.95-6.48v-15.6h8.27a5.51,5.51,0,0,0,4.8-2.4,10,10,0,0,0,1.68-5.88q0-4.08-2-6.18a7.31,7.31,0,0,0-5.76-2h-6.83q.24-8.16.24-9.12a7.14,7.14,0,0,0-2.1-5.46,8.15,8.15,0,0,0-5.82-2q-10.32,0-10.68,10.32l-.24,6.36H424a6.94,6.94,0,0,0-5.34,2.28,8.17,8.17,0,0,0-2.1,5.76q0,8.4,7,8.4h4.08q.12,3.24,0,9.24t-.12,7.92q0,11.28,5.34,16.8t14.1,5.52Q454.92,188.75,458.39,186.35Z"/><path class="cls-1" d="M514.25,164.45q5.1-11.22,7.74-16.74a18.55,18.55,0,0,0,2-7.8q0-3.12-3.48-5.4a13.33,13.33,0,0,0-7.44-2.28q-5.52,0-8,6.72-2.16,5.76-4.32,11.7T497.33,160q-1.26,3.42-2,5.1-1.44-3.36-4.74-11.88T484,136.43a7.41,7.41,0,0,0-2.94-3.6,10.16,10.16,0,0,0-4.86-1,12,12,0,0,0-7,2.34q-3.36,2.34-3.36,5.7a17.7,17.7,0,0,0,2.16,7.68l15.48,32.16,1.92,3.72-1.5,2.94q-1.14,2.22-1.86,3.66a16.14,16.14,0,0,1-3.42,5.16,6.66,6.66,0,0,1-4.62,1.56,8.69,8.69,0,0,0-6.42,2.34,8.88,8.88,0,0,0-2.33,6.54q0,9.48,11.75,9.48,12.48,0,19-12,4.32-8.52,8.76-18T514.25,164.45Z"/><path class="cls-1" d="M550.13,212.63q2.7-2.28,2.7-7.08,0-3.36-.12-8.34t-.12-6.06q0-1.08-.06-3.72t-.06-3.24q4.08,4.92,12.24,4.92,12.84,0,20.82-8.28t8-20.88q0-12.6-7-20.46t-19.14-7.86a20.48,20.48,0,0,0-9.18,2.1,15.48,15.48,0,0,0-6.54,5.82l-.6-2.4q-1.56-5.4-8-5.4-9.72,0-9.84,8.28l.12,19.68L533,206q0,8.88,8.64,8.88Q547.43,214.91,550.13,212.63Zm5.64-61a10.69,10.69,0,0,1,7.74-3.24,10,10,0,0,1,7.2,3.06,10.83,10.83,0,0,1,3.12,8.1,14.08,14.08,0,0,1-2.94,9.3,9.44,9.44,0,0,1-7.62,3.54q-10.8,0-10.8-12.36A11.25,11.25,0,0,1,555.77,151.67Z"/><path class="cls-1" d="M623.63,181q0-3.84-.06-11t-.06-11.16a10,10,0,0,1,2.58-7.32,8.08,8.08,0,0,1,5.94-2.64,6.83,6.83,0,0,1,5.58,2.4q2,2.4,2,6.84,0,1.68-.3,11.34t-.3,10.86a6.82,6.82,0,0,0,2.7,6.06,11.23,11.23,0,0,0,6.9,2.1,13.09,13.09,0,0,0,7.62-2,7,7,0,0,0,3.06-5.88q.12-5.16.12-23.88,0-11.28-5.64-18.12t-16.68-6.84a19.14,19.14,0,0,0-7.86,1.74,12.14,12.14,0,0,0-5.7,4.74q.36-28.44.36-29a8.14,8.14,0,0,0-2.52-6.36q-2.52-2.28-7.08-2.28-10.2,0-10.2,9.6v55.08q0,1.92-.18,7.8t-.18,7.56a7.28,7.28,0,0,0,2.76,6.18,11,11,0,0,0,6.84,2.1,12.87,12.87,0,0,0,7.44-2A6.61,6.61,0,0,0,623.63,181Z"/><path class="cls-1" d="M705.47,132.11a20,20,0,0,0-4.56-.48q-14.88.36-23.28,8.46t-8.4,21.66a25.25,25.25,0,0,0,8.46,19.56A29.36,29.36,0,0,0,698.15,189q13.08,0,21.6-8.16t8.52-20.76a29.73,29.73,0,0,0-5.82-18.18Q716.63,134,705.47,132.11Zm.24,36.72a9.9,9.9,0,0,1-7.8,3.6,8.35,8.35,0,0,1-6.48-3.18,11.4,11.4,0,0,1-2.76-7.74q0-6.12,2.76-9.54a9.77,9.77,0,0,1,7.8-3.54,8,8,0,0,1,6.84,3.48,12.4,12.4,0,0,1,2.76,7.68A13.6,13.6,0,0,1,705.71,168.83Z"/><path class="cls-1" d="M794.75,160.07a29.73,29.73,0,0,0-5.82-18.18q-5.82-7.86-17-9.78a20,20,0,0,0-4.56-.48q-14.88.36-23.28,8.46t-8.4,21.66a25.25,25.25,0,0,0,8.46,19.56A29.36,29.36,0,0,0,764.63,189q13.08,0,21.6-8.16T794.75,160.07Zm-22.56,8.76a9.9,9.9,0,0,1-7.8,3.6,8.35,8.35,0,0,1-6.48-3.18,11.4,11.4,0,0,1-2.76-7.74q0-6.12,2.76-9.54a9.77,9.77,0,0,1,7.8-3.54,8,8,0,0,1,6.84,3.48,12.4,12.4,0,0,1,2.76,7.68A13.6,13.6,0,0,1,772.19,168.83Z"/><path class="cls-1" d="M824.63,180.71l-.12-16.44q0-8.64,1.92-12.36t7.68-3.6q4.2.12,5.58,3.48a25.8,25.8,0,0,1,1.38,9.48q0,3.12-.12,9.78t-.12,9.18a7.25,7.25,0,0,0,2.64,6.12,10.67,10.67,0,0,0,6.72,2q10.56,0,10.56-8.28v-9.48q0-3.12.06-7.5t.06-7.14q0-11.76-5.64-18t-16-6.24a19,19,0,0,0-9.12,2.4,12.65,12.65,0,0,0-6,6.12l-.36-2.16Q822.71,132,815,132q-10.08,0-9.84,10.08l.12,6.48q.12,6.12-.12,17T805,180.35q0,4.68,2.64,6.42t7.56,1.74a11.82,11.82,0,0,0,6.66-1.86Q824.63,184.79,824.63,180.71Z"/><rect class="cls-1" x="421.13" y="225.08" width="3.82" height="37.94"/><polygon class="cls-1" points="458.91 256.67 438.03 225.08 434.16 225.08 434.16 263.03 437.98 263.03 437.98 231.44 458.91 263.03 462.67 263.03 462.67 225.08 458.91 225.08 458.91 256.67"/><polygon class="cls-1" points="471.95 263.03 475.77 263.03 475.77 246.33 491.3 246.33 491.3 242.89 475.77 242.89 475.77 228.58 494.31 228.58 494.31 225.08 471.95 225.08 471.95 263.03"/><path class="cls-1" d="M516.47,224.39c-10.6,0-18.07,8.17-18.07,19.67s7.42,19.6,18.07,19.6,18.07-8.1,18.07-19.6S527.12,224.39,516.47,224.39Zm0,35.62c-8.37,0-14.1-6.47-14.1-15.95s5.73-16,14.1-16,14.15,6.47,14.15,16S524.84,260,516.47,260Z"/><path class="cls-1" d="M568,236.05c0-6.73-4.67-11-12.35-11H541.49V263h3.81V247.29h11.08L564.12,263h4.24l-8.11-16.38C565.12,245.33,568,241.51,568,236.05Zm-12.25,7.79H545.3V228.53h10.34c5.19,0,8.42,2.7,8.42,7.63S561,243.84,555.74,243.84Z"/><path class="cls-1" d="M593,258.52l-13.83-33.44h-3.76V263h3.76v-18.6c0-5.78-.11-10-.32-11.4l12.35,30h3.66l12.34-30.16c-.21,2.6-.31,5.52-.31,12.14v18h3.76V225.08h-3.82Z"/><path class="cls-1" d="M629.94,225.08,616,263h3.86L623.58,253h17.49L644.78,263h4l-14.1-37.95Zm-5.19,24.54,7-19.18a9.31,9.31,0,0,0,.47-1.54c.06.37.32,1,.48,1.54l7.1,19.18Z"/><polygon class="cls-1" points="646.64 228.58 658.3 228.58 658.3 263.03 662.11 263.03 662.11 228.58 673.83 228.58 673.83 225.08 646.64 225.08 646.64 228.58"/><rect class="cls-1" x="679.07" y="225.08" width="3.82" height="37.94"/><path class="cls-1" d="M707.85,224.39c-10.6,0-18.07,8.17-18.07,19.67s7.42,19.6,18.07,19.6,18.07-8.1,18.07-19.6S718.5,224.39,707.85,224.39Zm0,35.62c-8.37,0-14.1-6.47-14.1-15.95s5.73-16,14.1-16,14.15,6.47,14.15,16S716.22,260,707.85,260Z"/><polygon class="cls-1" points="757.62 256.67 736.74 225.08 732.87 225.08 732.87 263.03 736.68 263.03 736.68 231.44 757.62 263.03 761.38 263.03 761.38 225.08 757.62 225.08 757.62 256.67"/><path class="cls-1" d="M805.16,243.9c3.92-1.54,5.88-4.56,5.88-9,0-6.1-4.5-9.81-11.82-9.81H785.34V263H800c7.21,0,11.76-3.87,11.76-10C811.78,248.4,809.56,245.33,805.16,243.9Zm-16-15.43h10c5.09,0,8,2.5,8,6.74,0,4.5-2.7,7.15-7.47,7.15h-10.5ZM800,259.58H789.15V245.7H800c4.93,0,7.89,2.59,7.89,6.89S805,259.58,800,259.58Z"/><path class="cls-1" d="M834.41,224.39c-10.59,0-18.07,8.17-18.07,19.67s7.42,19.6,18.07,19.6,18.08-8.1,18.08-19.6S845.07,224.39,834.41,224.39Zm0,35.62c-8.37,0-14.09-6.47-14.09-15.95s5.72-16,14.09-16,14.15,6.47,14.15,16S842.79,260,834.41,260Z"/><path class="cls-1" d="M868,225.08,854.08,263H858L861.66,253h17.49L882.86,263h4l-14.1-37.95Zm-5.2,24.54,7-19.18a9.5,9.5,0,0,0,.48-1.54,15,15,0,0,0,.48,1.54l7.1,19.18Z"/><path class="cls-1" d="M918.63,236.05c0-6.73-4.66-11-12.35-11H892.13V263H896V247.29H907L914.76,263H919l-8.11-16.38C915.77,245.33,918.63,241.51,918.63,236.05Zm-12.24,7.79H896V228.53h10.33c5.2,0,8.43,2.7,8.43,7.63S911.63,243.84,906.39,243.84Z"/><path class="cls-1" d="M937.5,225.08H926.05V263h11.56c11.39,0,19-7.63,19-19S949,225.08,937.5,225.08Zm0,34.45h-7.58V228.58h7.47c9.38,0,15.31,6,15.31,15.48S946.72,259.53,937.45,259.53Z"/><path class="cls-1" d="M391.16,260.85a18.66,18.66,0,0,0-9-11.14,19.19,19.19,0,0,0-25.41,7.49,154.17,154.17,0,0,1-209.19,61.57,118.77,118.77,0,0,1-57.51-71.22c-8.12-27.58-5.43-55,6.06-77.15a107.37,107.37,0,0,0,53.37,117.71A129.84,129.84,0,0,0,248,298.65a128.48,128.48,0,0,0,77.08-62.22A157.07,157.07,0,0,0,262.32,23.32,192.39,192.39,0,0,0,116.43,7.76,190.46,190.46,0,0,0,2.28,99.87a18.76,18.76,0,0,0,7.47,25.42,19.21,19.21,0,0,0,25.44-7.48A153.1,153.1,0,0,1,127,43.71,154.91,154.91,0,0,1,244.39,56.23a118.89,118.89,0,0,1,57.47,71.25c8.13,27.58,5.44,55-6.06,77.15A107.36,107.36,0,0,0,242.44,86.87a130.09,130.09,0,0,0-98.5-10.52,128.54,128.54,0,0,0-77.07,62.21,157.05,157.05,0,0,0,62.73,213.1,191.65,191.65,0,0,0,260-76.55A18.51,18.51,0,0,0,391.16,260.85ZM182.76,145.49a44.35,44.35,0,1,1-30,55.06A44.54,44.54,0,0,1,182.76,145.49Z"/></g></g></svg>